<svg width="41" height="41" viewBox="0 0 41 41" fill="none" xmlns="http://www.w3.org/2000/svg">
<path fill-rule="evenodd" clip-rule="evenodd" d="M24.3443 0.912446C35.1622 3.13323 42.1316 13.7032 39.9108 24.5211C37.69 35.339 27.1201 42.3084 16.3022 40.0876C5.48425 37.8668 -1.4851 27.2968 0.735686 16.4789C2.95647 5.66101 13.5264 -1.30834 24.3443 0.912446ZM24.5566 17.8746C24.1945 18.3092 23.6393 18.8885 22.73 19.2586C25.6106 20.2725 26.7211 22.5899 26.7211 26.0338V29.6305H15.3916V10.8903H19.3585H19.4551H20.4207C22.3196 10.8903 23.1162 11.2283 24.0174 11.9203C25.321 12.9422 25.5302 14.4308 25.5302 15.1791C25.5302 16.1044 25.2486 17.078 24.5566 17.8746ZM22.1104 28.5925H24.1542L24.1623 25.6797C24.1623 21.8013 22.9231 19.6851 19.7367 19.6851V18.7517H19.7609C20.9517 18.7517 21.7966 18.1563 22.3116 17.5126C22.899 16.8045 23.0197 16.1366 23.0438 15.5412H19.7609V14.6158H23.0116C22.9312 13.9963 22.6898 13.3686 22.3035 12.9019C21.5552 11.9766 20.5011 11.8237 19.8091 11.8237H17.9504V28.6006H19.7528V22.3404H22.1104V28.5925ZM14.6916 4.11519C14.2893 4.38073 14.1203 4.87156 14.2812 5.37044C14.4379 5.84706 14.8489 6.16474 15.3207 6.16445C15.4304 6.16438 15.5434 6.14713 15.6572 6.11072C15.9549 6.01416 16.1721 5.813 16.2928 5.55551C16.4055 5.30607 16.4296 5.0003 16.3331 4.70258C16.183 4.22636 15.7685 3.9088 15.2954 3.90858C15.2948 3.90858 15.2942 3.90858 15.2935 3.90858C15.2937 3.90858 15.2938 3.90858 15.2939 3.90858C15.1839 3.90868 15.0708 3.92593 14.9571 3.96231C14.8788 3.9864 14.8141 4.02852 14.7527 4.06843C14.7321 4.08184 14.7118 4.095 14.6916 4.10715C14.7211 4.09105 14.7488 4.07317 14.7765 4.05529C14.832 4.01953 14.8874 3.98377 14.9571 3.96231C14.8525 4.00254 14.7721 4.05887 14.6916 4.11519ZM14.2812 5.37044C14.1203 4.87961 14.2893 4.38073 14.6916 4.11519C14.2893 4.38073 14.1283 4.87961 14.2812 5.37044ZM15.2939 3.90858C15.7621 3.90979 16.1767 4.2271 16.3331 4.70258C16.1766 4.22659 15.7665 3.90911 15.2954 3.90858C15.2949 3.90858 15.2944 3.90858 15.2939 3.90858ZM15.5928 37.1862L16.148 37.3471L16.3813 36.5344L15.8664 36.3815C15.7779 36.3574 15.6974 36.3413 15.625 36.3413C15.3997 36.3332 15.2307 36.4217 15.1663 36.639C15.1566 36.6757 15.1516 36.7116 15.1515 36.7466C15.1509 36.9396 15.2996 37.0975 15.5928 37.1862ZM36.0845 24.3866C36.1169 24.3951 36.15 24.4023 36.1837 24.4084C36.2219 24.4151 36.26 24.42 36.2979 24.4232C36.7078 24.4563 37.0973 24.2738 37.3182 23.9497C37.3987 23.8371 37.455 23.6922 37.4792 23.5394C37.5918 22.9198 37.1734 22.3968 36.5538 22.2922C36.1032 22.2117 35.6607 22.3968 35.4193 22.7508C35.3388 22.8635 35.2825 23.0083 35.2584 23.1612C35.2423 23.2336 35.2423 23.3141 35.2423 23.3865C35.2573 23.8693 35.5978 24.2601 36.0845 24.3866ZM34.6951 14.2296C34.7353 14.1813 34.7755 14.1411 34.8157 14.1009L34.8158 14.1009C34.7675 14.1411 34.7273 14.1813 34.6951 14.2296ZM35.9745 15.863C36.5538 15.6458 36.8757 15.0503 36.6584 14.4549C36.5458 14.1572 36.3366 13.948 36.0791 13.8434C35.8216 13.7388 35.5239 13.7307 35.2262 13.8434C35.1537 13.8675 35.0894 13.8997 35.025 13.9399H35.017L34.9204 14.0123C34.9083 14.0244 34.8942 14.0345 34.8802 14.0445C34.8661 14.0546 34.852 14.0646 34.8399 14.0767C34.8319 14.0928 34.8238 14.1009 34.8158 14.1089C34.8059 14.1188 34.7954 14.1288 34.7849 14.1388C34.7527 14.1695 34.7193 14.2013 34.6951 14.2376C34.4778 14.5193 34.4054 14.8894 34.5422 15.2595C34.7434 15.7906 35.2744 16.0159 35.8136 15.8952C35.8417 15.8872 35.8679 15.8831 35.894 15.8791C35.9202 15.8751 35.9463 15.8711 35.9745 15.863ZM15.2388 36.0114C14.9169 35.7861 14.7318 35.5125 14.8525 35.086C15.0134 34.5389 15.5445 34.3779 16.2285 34.5791L17.4193 34.9251L16.5342 37.9586L15.3755 37.6609C15.0215 37.5563 14.7801 37.3632 14.6594 37.1379C14.5628 36.9689 14.5387 36.7838 14.6031 36.5666C14.7077 36.1964 14.9813 36.0597 15.2388 36.0114ZM15.8744 35.8987L16.5101 36.0838L16.7515 35.247L16.0836 35.0539C15.9871 35.0217 15.9066 35.0056 15.8261 35.0056C15.8244 35.0055 15.8226 35.0053 15.8208 35.0052C15.8252 35.0053 15.8297 35.0054 15.8342 35.0056C15.8172 35.0044 15.8005 35.0039 15.7843 35.004C15.5735 35.0026 15.4279 35.1068 15.3675 35.3033C15.2951 35.5608 15.448 35.778 15.8744 35.8987ZM15.7843 35.004C15.5779 35.0053 15.4352 35.1093 15.3755 35.3033C15.4387 35.0981 15.5947 35.0013 15.8208 35.0052C15.8084 35.0045 15.7962 35.004 15.7843 35.004ZM15.8825 35.8987C15.5275 35.7983 15.3565 35.6309 15.3555 35.4291C15.3568 35.6289 15.5278 35.7917 15.8825 35.8987ZM12.3662 35.1826C11.7546 34.8205 11.5213 34.2733 11.8431 33.7181C12.165 33.1629 12.7685 33.0503 13.3961 33.4446L14.3054 33.9756L12.6961 36.7114L12.2213 36.4298L12.8007 35.4401L12.3662 35.1826ZM12.3098 33.9998C12.1409 34.2814 12.2616 34.555 12.6237 34.7722L13.0421 35.0136L13.5731 34.1124L13.1467 33.863C13.0817 33.8246 13.0188 33.7937 12.9582 33.7713C13.0216 33.7929 13.0876 33.8233 13.1547 33.863C13.0062 33.7752 12.869 33.7271 12.7431 33.7281C12.7162 33.7279 12.6898 33.7299 12.6639 33.7342C12.519 33.7584 12.3983 33.8469 12.3098 33.9998ZM12.7431 33.7281C12.719 33.7283 12.6952 33.7303 12.6719 33.7342C12.7569 33.7242 12.8542 33.736 12.9582 33.7713C12.8832 33.7436 12.8115 33.7287 12.7431 33.7281ZM10.0166 35.1021L11.8431 32.5031L11.3925 32.1813L9.56599 34.7803L10.0166 35.1021ZM4.43235 19.5805C4.3197 19.838 4.02198 20.1598 3.47482 20.1196C2.92766 20.0713 2.50925 19.7575 2.58166 18.8965C2.58971 18.8 2.66213 18.108 2.69431 17.931L5.84048 18.1804L5.76002 18.7437L4.61742 18.6391L4.58523 19.0253L5.33355 19.6529C5.70369 19.9667 5.77611 20.3449 5.65541 20.6024L5.17263 20.6104C5.237 20.4415 5.13239 20.184 4.98756 20.0552L4.43235 19.5805ZM4.0944 18.6069L3.15296 18.5264C3.14881 18.5638 3.14465 18.6002 3.14063 18.6353C3.12909 18.7362 3.1187 18.827 3.11273 18.9046C3.0725 19.3552 3.27366 19.5161 3.5231 19.5322C3.853 19.5644 4.03807 19.2908 4.06221 18.969L4.0944 18.6069ZM7.16815 32.6319C7.836 33.348 8.84986 33.34 9.50967 32.7365C10.1775 32.1249 10.258 31.1191 9.59013 30.403C9.17976 29.9685 8.64065 29.7995 8.13372 29.8719L8.21419 30.4271C8.56823 30.3547 8.93032 30.4593 9.2039 30.749C9.63037 31.2157 9.55795 31.8916 9.10735 32.31C8.64065 32.7365 7.97279 32.7606 7.54633 32.2939C7.28885 32.0042 7.20838 31.6421 7.29689 31.3042L6.74168 31.1835C6.64513 31.6743 6.77387 32.2054 7.16815 32.6319ZM5.24504 23.6842L6.04164 23.8773L6.19453 24.4567L2.76673 23.5796L2.68627 23.0646L5.66346 21.1576L5.70369 21.7691L5.0117 22.1956C5.04388 22.445 5.07607 22.6945 5.1163 22.9439C5.15653 23.1934 5.19676 23.4348 5.24504 23.6842ZM3.38631 23.2255L4.72202 23.5555C4.68179 23.3784 4.6496 23.2014 4.62547 23.0244C4.59328 22.8474 4.56914 22.6703 4.545 22.4853L3.38631 23.2255ZM5.35769 30.2018L7.75554 29.027L8.21419 28.7937C7.42563 27.635 6.8141 26.3798 6.37959 25.0521L5.9129 25.2854L3.51505 26.4683C3.54724 26.5568 3.57943 26.6433 3.61161 26.7298C3.6438 26.8163 3.67598 26.9028 3.70817 26.9913L6.09797 25.8165C6.2428 26.2108 6.40373 26.597 6.58076 26.9752L4.199 28.1419C4.27947 28.3109 4.35993 28.4718 4.44844 28.6408L6.8302 27.4741C7.01527 27.8442 7.22447 28.1983 7.44173 28.5523L5.05997 29.7351C5.08675 29.7775 5.11353 29.8205 5.14048 29.8638C5.2107 29.9767 5.2821 30.0913 5.35769 30.2018ZM34.0514 15.4205C33.7134 14.5032 34.1721 13.61 35.017 13.2962C35.8538 12.9824 36.8033 13.3686 37.1412 14.2859C37.4792 15.2032 37.0205 16.0964 36.1756 16.4102C35.3308 16.724 34.3893 16.3378 34.0514 15.4205ZM34.7514 23.0566C34.9204 22.099 35.7653 21.5599 36.6584 21.7128C37.5355 21.8657 38.1551 22.6784 37.9861 23.6359C37.8171 24.5934 36.9722 25.1326 36.0791 24.9797C35.202 24.8268 34.5824 24.0141 34.7514 23.0566ZM36.5538 22.2841C36.4811 22.2713 36.4087 22.2651 36.3376 22.265C36.4089 22.2649 36.4813 22.2712 36.5538 22.2841ZM35.2503 23.1531C35.2342 23.2255 35.2342 23.306 35.2342 23.3784C35.2342 23.3126 35.2409 23.2468 35.2481 23.175L35.2503 23.1531ZM34.4457 9.62702L31.8225 11.349L32.1605 11.8076L33.2628 11.0834L33.472 11.4053L33.1421 12.3467C32.9732 12.8215 32.9249 13.2882 33.3031 13.602L33.7054 13.3364C33.5284 13.1836 33.5284 12.9341 33.641 12.572L33.9629 11.5501L35.894 11.8237L35.5561 11.2685L33.8583 11.0754L33.6812 10.8018L34.7836 10.0776L34.4457 9.62702ZM30.8328 34.901L29.1752 32.2295L28.7085 32.5434L29.4005 33.6618L29.0787 33.863L28.1453 33.5089C27.6705 33.3239 27.2119 33.2675 26.882 33.6377L27.1475 34.04C27.3004 33.871 27.5498 33.8791 27.9119 33.9998L28.9338 34.3619L28.612 36.285L29.1752 35.9551L29.4086 34.2653L29.6822 34.0963L30.3741 35.2228L30.8328 34.901ZM34.3732 31.4732L32.0478 29.3409L31.7179 29.7593L32.2409 32.6158L30.5351 31.0467L30.1328 31.4249L32.4582 33.5572L32.8525 33.179L32.3375 30.3467L34.0272 31.8996L34.3732 31.4732ZM27.1153 36.985L26.1498 33.9756L25.6509 34.1848L24.6933 36.9287L23.9853 34.7239L23.4542 34.8527L24.4198 37.8621L24.9508 37.7253L25.9003 35.0056L26.6004 37.1862L27.1153 36.985ZM36.9722 26.8867L34.2123 25.2693L34.0192 25.7924L35.1377 26.428C35.5158 26.6372 35.9584 26.8786 36.3285 27.0798L36.3205 27.0879C35.9182 26.9993 33.6008 26.7177 33.6008 26.7177L33.3916 27.1442C33.3916 27.1442 34.9928 28.8983 35.2905 29.1719L35.2825 29.188C34.8963 28.9949 34.4457 28.7937 34.0675 28.6328L32.8686 28.1178L32.5547 28.6247L35.4997 29.8558L35.9021 29.1719C35.9021 29.1719 34.4215 27.5626 34.1479 27.3292L34.156 27.3132C34.5181 27.3936 36.6665 27.627 36.6665 27.627L36.9722 26.8867ZM37.8815 17.3758L34.7434 17.6735L34.8238 18.2206L36.1193 18.0999H36.1354C36.1813 18.3832 36.2127 18.6737 36.2434 18.9576L36.2481 19.0012L36.2507 19.0347C36.274 19.3287 36.2966 19.6158 36.3044 19.9104H36.2883L34.9928 20.0311L35.0089 20.5944L38.147 20.2966L38.1229 19.7414L36.8113 19.8621H36.8033C36.7952 19.5564 36.7711 19.2506 36.7469 18.9529C36.7148 18.6552 36.6745 18.3494 36.6343 18.0517H36.6423L37.97 17.931L37.8815 17.3758ZM29.6017 8.1867C29.5293 8.69363 29.7063 9.23275 30.1488 9.63507C30.873 10.2949 31.8708 10.2064 32.4743 9.53851C33.0778 8.8787 33.0697 7.86485 32.3455 7.20504C31.9191 6.8188 31.388 6.69006 30.8972 6.79467L31.0179 7.34987C31.3558 7.26136 31.7179 7.33378 32.0076 7.59127C32.4099 7.95336 32.4582 8.50052 32.1926 8.94307C31.9593 8.70168 31.7179 8.46833 31.4685 8.24303C31.3639 8.14647 31.2593 8.04991 31.1547 7.9614L30.8328 8.33959C30.9294 8.42134 31.026 8.50995 31.1163 8.59275L31.1386 8.61317C31.388 8.83847 31.6294 9.07182 31.8627 9.31321C31.4524 9.61897 30.8891 9.62702 30.4868 9.25688C30.1891 8.9833 30.0845 8.62121 30.1569 8.26717L29.6017 8.1867ZM16.8883 4.52556C17.1619 5.37849 16.7434 6.30383 15.8101 6.60155C14.8847 6.90732 14.0076 6.40843 13.726 5.54746C13.4524 4.70258 13.8789 3.77724 14.8042 3.47148C15.7296 3.17376 16.6066 3.66459 16.8883 4.52556ZM9.91199 6.0383L11.5535 8.71777L12.0041 8.40396L11.3201 7.2855L11.65 7.08434L12.5834 7.43838C13.0582 7.62345 13.5168 7.67978 13.8467 7.31769L13.5973 6.89927C13.4444 7.07629 13.195 7.06825 12.8329 6.9395L11.811 6.57741L12.1489 4.66235L11.5857 4.98421L11.3362 6.67397L11.0626 6.84294L10.3706 5.71644L9.91199 6.0383ZM5.57495 10.5041L7.59461 12.2502L7.98889 12.5881C8.73721 11.4053 9.65451 10.3512 10.7086 9.43391L10.3143 9.09595L8.29465 7.34987L8.2946 7.34992C8.15783 7.47865 8.02106 7.60738 7.89233 7.7361L9.91199 9.47414C9.60623 9.76381 9.31655 10.0615 9.03493 10.3753L7.03136 8.63731C6.97101 8.70972 6.91067 8.78012 6.85033 8.85052C6.78997 8.92093 6.72962 8.99135 6.66927 9.06377L8.67284 10.8018C8.4073 11.1156 8.15786 11.4455 7.91647 11.7835L5.89681 10.0454C5.78416 10.1983 5.67955 10.3512 5.57495 10.5041ZM23.1726 5.35435C22.9312 5.30607 22.6817 5.26584 22.4323 5.23365L21.9736 5.9176L21.3782 5.86128L23.3657 2.93236L23.8726 3.02892L24.6612 6.47281L24.0738 6.30383L23.9048 5.50723C23.6978 5.45892 23.4848 5.41654 23.2761 5.37499C23.2415 5.36809 23.2069 5.36122 23.1726 5.35435ZM23.8002 4.96812L23.4944 3.6324L22.7381 4.76696C22.9151 4.7911 23.0921 4.82328 23.2691 4.85547C23.3576 4.87558 23.4461 4.89369 23.5347 4.91179C23.6232 4.9299 23.7117 4.948 23.8002 4.96812ZM17.6849 6.00611C17.7734 6.01416 17.9504 6.03025 18.0711 6.0222C18.6987 5.97393 19.0286 5.54746 18.8758 3.53585L18.8516 3.23008C18.8798 3.22606 18.9059 3.22405 18.9321 3.22203C18.9582 3.22002 18.9844 3.21801 19.0125 3.21399C19.3264 3.18985 19.6402 3.17376 19.962 3.1818L20.1632 5.83714L20.7184 5.7969L20.5172 3.17376L20.477 2.67488C20.1793 2.67488 19.8735 2.67488 19.5758 2.69097L18.3769 2.77948C18.3648 2.77948 18.3507 2.78149 18.3366 2.7835C18.3226 2.78551 18.3085 2.78753 18.2964 2.78753L18.3366 3.28641L18.3447 3.41515C18.4895 5.31412 18.2079 5.53942 17.886 5.56356C17.8136 5.56356 17.7412 5.55551 17.701 5.54746L17.6849 6.00611ZM20.3322 37.4195C20.6862 37.4195 20.9678 37.1379 20.9678 36.7838C20.9678 36.4298 20.6862 36.1482 20.3322 36.1482C19.9781 36.1482 19.6965 36.4298 19.6965 36.7838C19.6965 37.1379 19.9781 37.4195 20.3322 37.4195ZM5.30941 13.8192C4.95537 13.787 4.64156 14.0445 4.60937 14.3905C4.56914 14.7446 4.82663 15.0503 5.18067 15.0906C5.53472 15.1228 5.84853 14.8653 5.88071 14.5193C5.9129 14.1652 5.65541 13.8514 5.30941 13.8192ZM27.9522 5.43481C27.6384 5.27388 27.2602 5.40263 27.0992 5.71644C26.9383 6.03025 27.0671 6.40844 27.3809 6.56936C27.6947 6.73029 28.0729 6.60155 28.2338 6.28774C28.3947 5.97393 28.266 5.59574 27.9522 5.43481Z" fill="#171923"/>
</svg>
